<?xml version="1.0" encoding="UTF-8" standalone="no"?>
<svg
   xmlns:dc="http://purl.org/dc/elements/1.1/"
   xmlns:cc="http://creativecommons.org/ns#"
   xmlns:rdf="http://www.w3.org/1999/02/22-rdf-syntax-ns#"
   xmlns:svg="http://www.w3.org/2000/svg"
   xmlns="http://www.w3.org/2000/svg"
   xmlns:sodipodi="http://sodipodi.sourceforge.net/DTD/sodipodi-0.dtd"
   xmlns:inkscape="http://www.inkscape.org/namespaces/inkscape"
   version="1.1"
   width="150"
   height="150"
   viewBox="0 0 150 150"
   id="svg4"
   sodipodi:docname="smk-logo.svg"
   inkscape:version="0.92.3 (2405546, 2018-03-11)">
  <metadata
     id="metadata10">
    <rdf:RDF>
      <cc:Work
         rdf:about="">
        <dc:format>image/svg+xml</dc:format>
        <dc:type
           rdf:resource="http://purl.org/dc/dcmitype/StillImage" />
        <dc:title></dc:title>
      </cc:Work>
    </rdf:RDF>
  </metadata>
  <defs
     id="defs8" />
  <sodipodi:namedview
     pagecolor="#ffffff"
     bordercolor="#666666"
     borderopacity="1"
     objecttolerance="10"
     gridtolerance="10"
     guidetolerance="10"
     inkscape:pageopacity="0"
     inkscape:pageshadow="2"
     inkscape:window-width="1853"
     inkscape:window-height="1025"
     id="namedview6"
     showgrid="false"
     inkscape:zoom="3.4766083"
     inkscape:cx="53.791"
     inkscape:cy="86.484121"
     inkscape:window-x="67"
     inkscape:window-y="27"
     inkscape:window-maximized="1"
     inkscape:current-layer="svg4"
     scale-x="0.5" />
  <path
     d="M 75.000001,1.2952072 14.69608,28.09695 v 40.202615 c 0,37.187415 25.729673,71.962675 60.303921,80.405225 34.574249,-8.44255 60.303919,-43.21781 60.303919,-80.405225 V 28.09695 L 75.000001,1.2952072 m 0,40.2026148 c 9.38061,0 18.76122,7.370479 18.76122,16.751089 v 10.050654 c 4.020262,0 8.040519,4.020261 8.040519,8.710566 v 23.451519 c 0,4.02026 -4.020257,8.04053 -8.710562,8.04053 H 56.238781 c -4.020261,0 -8.040522,-4.02027 -8.040522,-8.710567 V 76.340087 c 0,-4.020261 4.020261,-8.040522 8.040522,-8.040522 V 58.248911 c 0,-9.38061 9.38061,-16.751089 18.76122,-16.751089 m 0,8.040523 c -5.360348,0 -10.050653,3.350217 -10.050653,8.710566 V 68.299565 H 85.050655 V 58.248911 c 0,-5.360349 -4.690305,-8.710566 -10.050654,-8.710566 z"
     id="path2"
     style="fill:#4caf50;fill-opacity:1;stroke-width:6.70043564;stroke:none"
     inkscape:connector-curvature="0" />
  <text
     xml:space="preserve"
     style="font-style:normal;font-variant:normal;font-weight:bold;font-stretch:normal;font-size:17.86782837px;line-height:1.25;font-family:sans-serif;-inkscape-font-specification:'sans-serif, Bold';font-variant-ligatures:normal;font-variant-caps:normal;font-variant-numeric:normal;font-feature-settings:normal;text-align:start;letter-spacing:0px;word-spacing:0px;writing-mode:lr-tb;text-anchor:start;fill:#4caf50;fill-opacity:1;stroke:none;stroke-width:6.70043564"
     x="52.33427"
     y="96.274521"
     id="text3717"><tspan
       sodipodi:role="line"
       id="tspan3715"
       x="52.33427"
       y="96.274521"
       style="stroke-width:6.70043564">SMK</tspan></text>
</svg>
